<svg width="131" height="22" viewBox="0 0 131 22" fill="none" xmlns="http://www.w3.org/2000/svg">
<path fill-rule="evenodd" clip-rule="evenodd" d="M63.1281 22L81.1112 0H3C1.34315 0 0 1.34315 0 3V19C0 20.6569 1.34315 22 3 22H63.1281Z" fill="#C92207"/>
<path fill-rule="evenodd" clip-rule="evenodd" d="M57 22L76.3697 0H127.682C129.339 0 130.682 1.34315 130.682 3V19C130.682 20.6569 129.339 22 127.682 22H57Z" fill="#0E376F"/>
<path d="M12.04 15L10.288 11.82H9.796V15H7.744V6.576H11.188C11.852 6.576 12.416 6.692 12.88 6.924C13.352 7.156 13.704 7.476 13.936 7.884C14.168 8.284 14.284 8.732 14.284 9.228C14.284 9.788 14.124 10.288 13.804 10.728C13.492 11.168 13.028 11.48 12.412 11.664L14.356 15H12.04ZM9.796 10.368H11.068C11.444 10.368 11.724 10.276 11.908 10.092C12.1 9.908 12.196 9.648 12.196 9.312C12.196 8.992 12.1 8.74 11.908 8.556C11.724 8.372 11.444 8.28 11.068 8.28H9.796V10.368ZM20.8161 13.512H17.6721L17.1681 15H15.0201L18.0681 6.576H20.4441L23.4921 15H21.3201L20.8161 13.512ZM20.2881 11.928L19.2441 8.844L18.2121 11.928H20.2881ZM27.5758 6.576C28.4638 6.576 29.2398 6.752 29.9038 7.104C30.5678 7.456 31.0798 7.952 31.4398 8.592C31.8078 9.224 31.9918 9.956 31.9918 10.788C31.9918 11.612 31.8078 12.344 31.4398 12.984C31.0798 13.624 30.5638 14.12 29.8918 14.472C29.2278 14.824 28.4558 15 27.5758 15H24.4198V6.576H27.5758ZM27.4438 13.224C28.2198 13.224 28.8238 13.012 29.2558 12.588C29.6878 12.164 29.9038 11.564 29.9038 10.788C29.9038 10.012 29.6878 9.408 29.2558 8.976C28.8238 8.544 28.2198 8.328 27.4438 8.328H26.4718V13.224H27.4438ZM35.1905 6.576V15H33.1385V6.576H35.1905ZM38.6936 6.576V11.616C38.6936 12.12 38.8176 12.508 39.0656 12.78C39.3136 13.052 39.6776 13.188 40.1576 13.188C40.6376 13.188 41.0056 13.052 41.2616 12.78C41.5176 12.508 41.6456 12.12 41.6456 11.616V6.576H43.6976V11.604C43.6976 12.356 43.5376 12.992 43.2176 13.512C42.8976 14.032 42.4656 14.424 41.9216 14.688C41.3856 14.952 40.7856 15.084 40.1216 15.084C39.4576 15.084 38.8616 14.956 38.3336 14.7C37.8136 14.436 37.4016 14.044 37.0976 13.524C36.7936 12.996 36.6416 12.356 36.6416 11.604V6.576H38.6936ZM54.6785 6.576V15H52.6265V9.948L50.7425 15H49.0865L47.1905 9.936V15H45.1385V6.576H47.5625L49.9265 12.408L52.2665 6.576H54.6785Z" fill="white"/>
<path d="M79.792 15.084C79.176 15.084 78.624 14.984 78.136 14.784C77.648 14.584 77.256 14.288 76.96 13.896C76.672 13.504 76.52 13.032 76.504 12.48H78.688C78.72 12.792 78.828 13.032 79.012 13.2C79.196 13.36 79.436 13.44 79.732 13.44C80.036 13.44 80.276 13.372 80.452 13.236C80.628 13.092 80.716 12.896 80.716 12.648C80.716 12.44 80.644 12.268 80.5 12.132C80.364 11.996 80.192 11.884 79.984 11.796C79.784 11.708 79.496 11.608 79.12 11.496C78.576 11.328 78.132 11.16 77.788 10.992C77.444 10.824 77.148 10.576 76.9 10.248C76.652 9.92 76.528 9.492 76.528 8.964C76.528 8.18 76.812 7.568 77.38 7.128C77.948 6.68 78.688 6.456 79.6 6.456C80.528 6.456 81.276 6.68 81.844 7.128C82.412 7.568 82.716 8.184 82.756 8.976H80.536C80.52 8.704 80.42 8.492 80.236 8.34C80.052 8.18 79.816 8.1 79.528 8.1C79.28 8.1 79.08 8.168 78.928 8.304C78.776 8.432 78.7 8.62 78.7 8.868C78.7 9.14 78.828 9.352 79.084 9.504C79.34 9.656 79.74 9.82 80.284 9.996C80.828 10.18 81.268 10.356 81.604 10.524C81.948 10.692 82.244 10.936 82.492 11.256C82.74 11.576 82.864 11.988 82.864 12.492C82.864 12.972 82.74 13.408 82.492 13.8C82.252 14.192 81.9 14.504 81.436 14.736C80.972 14.968 80.424 15.084 79.792 15.084ZM90.5468 9.288C90.5468 9.776 90.4348 10.224 90.2108 10.632C89.9868 11.032 89.6428 11.356 89.1788 11.604C88.7148 11.852 88.1388 11.976 87.4508 11.976H86.1788V15H84.1268V6.576H87.4508C88.1228 6.576 88.6908 6.692 89.1548 6.924C89.6188 7.156 89.9668 7.476 90.1988 7.884C90.4308 8.292 90.5468 8.76 90.5468 9.288ZM87.2948 10.344C87.6868 10.344 87.9788 10.252 88.1708 10.068C88.3628 9.884 88.4588 9.624 88.4588 9.288C88.4588 8.952 88.3628 8.692 88.1708 8.508C87.9788 8.324 87.6868 8.232 87.2948 8.232H86.1788V10.344H87.2948ZM95.5991 15.084C94.8071 15.084 94.0791 14.9 93.4151 14.532C92.7591 14.164 92.2351 13.652 91.8431 12.996C91.4591 12.332 91.2671 11.588 91.2671 10.764C91.2671 9.94 91.4591 9.2 91.8431 8.544C92.2351 7.888 92.7591 7.376 93.4151 7.008C94.0791 6.64 94.8071 6.456 95.5991 6.456C96.3911 6.456 97.1151 6.64 97.7711 7.008C98.4351 7.376 98.9551 7.888 99.3311 8.544C99.7151 9.2 99.9071 9.94 99.9071 10.764C99.9071 11.588 99.7151 12.332 99.3311 12.996C98.9471 13.652 98.4271 14.164 97.7711 14.532C97.1151 14.9 96.3911 15.084 95.5991 15.084ZM95.5991 13.212C96.2711 13.212 96.8071 12.988 97.2071 12.54C97.6151 12.092 97.8191 11.5 97.8191 10.764C97.8191 10.02 97.6151 9.428 97.2071 8.988C96.8071 8.54 96.2711 8.316 95.5991 8.316C94.9191 8.316 94.3751 8.536 93.9671 8.976C93.5671 9.416 93.3671 10.012 93.3671 10.764C93.3671 11.508 93.5671 12.104 93.9671 12.552C94.3751 12.992 94.9191 13.212 95.5991 13.212ZM105.345 15L103.593 11.82H103.101V15H101.049V6.576H104.493C105.157 6.576 105.721 6.692 106.185 6.924C106.657 7.156 107.009 7.476 107.241 7.884C107.473 8.284 107.589 8.732 107.589 9.228C107.589 9.788 107.429 10.288 107.109 10.728C106.797 11.168 106.333 11.48 105.717 11.664L107.661 15H105.345ZM103.101 10.368H104.373C104.749 10.368 105.029 10.276 105.213 10.092C105.405 9.908 105.501 9.648 105.501 9.312C105.501 8.992 105.405 8.74 105.213 8.556C105.029 8.372 104.749 8.28 104.373 8.28H103.101V10.368ZM114.937 6.576V8.22H112.705V15H110.653V8.22H108.421V6.576H114.937ZM119.015 15.084C118.399 15.084 117.847 14.984 117.359 14.784C116.871 14.584 116.479 14.288 116.183 13.896C115.895 13.504 115.743 13.032 115.727 12.48H117.911C117.943 12.792 118.051 13.032 118.235 13.2C118.419 13.36 118.659 13.44 118.955 13.44C119.259 13.44 119.499 13.372 119.675 13.236C119.851 13.092 119.939 12.896 119.939 12.648C119.939 12.44 119.867 12.268 119.723 12.132C119.587 11.996 119.415 11.884 119.207 11.796C119.007 11.708 118.719 11.608 118.343 11.496C117.799 11.328 117.355 11.16 117.011 10.992C116.667 10.824 116.371 10.576 116.123 10.248C115.875 9.92 115.751 9.492 115.751 8.964C115.751 8.18 116.035 7.568 116.603 7.128C117.171 6.68 117.911 6.456 118.823 6.456C119.751 6.456 120.499 6.68 121.067 7.128C121.635 7.568 121.939 8.184 121.979 8.976H119.759C119.743 8.704 119.643 8.492 119.459 8.34C119.275 8.18 119.039 8.1 118.751 8.1C118.503 8.1 118.303 8.168 118.151 8.304C117.999 8.432 117.923 8.62 117.923 8.868C117.923 9.14 118.051 9.352 118.307 9.504C118.563 9.656 118.963 9.82 119.507 9.996C120.051 10.18 120.491 10.356 120.827 10.524C121.171 10.692 121.467 10.936 121.715 11.256C121.963 11.576 122.087 11.988 122.087 12.492C122.087 12.972 121.963 13.408 121.715 13.8C121.475 14.192 121.123 14.504 120.659 14.736C120.195 14.968 119.647 15.084 119.015 15.084Z" fill="white"/>
</svg>
